<svg width="60" height="60" fill="none" xmlns="http://www.w3.org/2000/svg"><g clip-path="url(#clip0)"><path fill="#fff" d="M-360-45h1920v5184H-360z"/><g clip-path="url(#clip1)" fill="#532A87"><path d="M10 54.999V48.02h23.811c2.912 0 5.569-.707 7.766-2.73 3.627-3.287 4.547-8.394 2.248-12.693a20.704 20.704 0 00-1.227-1.972l.92-1.517c4.241-7.18-.51-15.726-9.044-15.929-6.284-.151-12.569-.05-18.905-.05h-5.467v-7.08h.613c8.533 0 17.015-.303 25.446.354 11.292.81 18.24 11.53 15.124 22.3a10.465 10.465 0 01-.41 1.214c.41 2.832 1.023 5.209 1.074 7.636.153 9.001-6.898 16.788-15.942 17.244-8.38.404-16.759.151-25.24.202H10z"/><path d="M10 27.087v-6.928h23.146c.51 0 1.022 0 1.533.05 2.044.253 3.372 1.669 3.321 3.49-.051 1.77-1.43 3.337-3.474 3.337-8.073.101-16.146.05-24.526.05zm0 13.956v-6.928h23.146c.51 0 1.022 0 1.533.05 2.044.254 3.372 1.67 3.321 3.49-.051 1.77-1.43 3.337-3.474 3.337-8.073.102-16.146.051-24.526.051z"/></g></g><defs><clipPath id="clip0"><path fill="#fff" transform="translate(-360 -45)" d="M0 0h1920v5184H0z"/></clipPath><clipPath id="clip1"><path fill="#fff" transform="translate(10 6)" d="M0 0h42v49H0z"/></clipPath></defs></svg>