<svg width="60" height="60" viewBox="0 0 60 60" fill="none" xmlns="http://www.w3.org/2000/svg">
<g clip-path="url(#clip0)">
<rect width="1920" height="5184" transform="translate(-360 -45)" fill="white"/>
<g clip-path="url(#clip1)">
<path d="M10 54.9988C10 52.875 10 50.3972 10 48.0205C11.0219 48.0205 11.9416 48.0205 12.8613 48.0205C19.8613 48.0205 26.8102 48.0205 33.8102 48.0205C36.7226 48.0205 39.3796 47.3126 41.5766 45.2898C45.2044 42.003 46.1241 36.8956 43.8248 32.5974C43.4672 31.94 43.0584 31.2826 42.5985 30.6252C42.9051 30.1196 43.2117 29.6139 43.5182 29.1082C47.7591 21.9276 43.0073 13.3817 34.4745 13.1794C28.1898 13.0277 21.9051 13.1289 15.5693 13.1289C13.781 13.1289 12.0438 13.1289 10.1022 13.1289C10.1022 10.7522 10.1022 8.12267 10.1022 6.0494C10.5109 6.0494 10.562 6.0494 10.7153 6.0494C19.2482 6.0494 27.7299 5.74599 36.1606 6.40337C47.4526 7.21245 54.4015 17.9328 51.2847 28.7037C51.1314 29.2599 50.927 29.8162 50.8759 29.9173C51.2847 32.7491 51.8978 35.1258 51.9489 37.553C52.1022 46.554 45.0511 54.3414 36.0073 54.7966C27.6277 55.2011 19.2482 54.9483 10.7664 54.9988C10.6131 54.9988 10.6642 54.9988 10 54.9988Z" fill="#532A87"/>
<path d="M10 27.0865C10 24.7098 10 22.4342 10 20.1587C10.8686 20.1587 11.5328 20.1587 12.2482 20.1587C19.1971 20.1587 26.146 20.1587 33.146 20.1587C33.6569 20.1587 34.1679 20.1587 34.6788 20.2093C36.7226 20.4621 38.0511 21.878 38 23.6984C37.9489 25.4683 36.5693 27.0359 34.5256 27.0359C26.4526 27.137 18.3796 27.0865 10 27.0865Z" fill="#532A87"/>
<path d="M10 41.043C10 38.6663 10 36.3908 10 34.1152C10.8686 34.1152 11.5328 34.1152 12.2482 34.1152C19.1971 34.1152 26.146 34.1152 33.146 34.1152C33.6569 34.1152 34.1679 34.1152 34.6788 34.1658C36.7226 34.4186 38.0511 35.8345 38 37.655C37.9489 39.4248 36.5693 40.9924 34.5256 40.9924C26.4526 41.0936 18.3796 41.043 10 41.043Z" fill="#532A87"/>
</g>
</g>
<defs>
<clipPath id="clip0">
<rect width="1920" height="5184" fill="white" transform="translate(-360 -45)"/>
</clipPath>
<clipPath id="clip1">
<rect width="42" height="49" fill="white" transform="translate(10 6)"/>
</clipPath>
</defs>
</svg>
